<svg width="24" height="24" viewBox="0 0 24 24" fill="none" xmlns="http://www.w3.org/2000/svg">
<g clip-path="url(#clip0_13073_11585)">
<mask id="mask0_13073_11585" style="mask-type:luminance" maskUnits="userSpaceOnUse" x="0" y="0" width="24" height="24">
<path d="M0 0H24V24H0V0Z" fill="white"/>
</mask>
<g mask="url(#mask0_13073_11585)">
<path fill-rule="evenodd" clip-rule="evenodd" d="M19.0329 16.75L22.5397 20.258C22.6567 20.375 22.7497 20.5138 22.8131 20.6667C22.8765 20.8195 22.9091 20.9834 22.9091 21.1489C22.9091 21.3143 22.8765 21.4782 22.8131 21.631C22.7497 21.7839 22.6567 21.9227 22.5397 22.0397C22.4229 22.1571 22.2841 22.2502 22.1313 22.3138C21.9783 22.3775 21.8144 22.4101 21.6489 22.4101C21.4833 22.4101 21.3194 22.3775 21.1664 22.3138C21.0136 22.2502 20.8748 22.1571 20.758 22.0397L17.25 18.5329C15.4882 19.9105 13.3163 20.6591 11.0799 20.6598C5.52209 20.6598 1 16.1377 1 10.5799C1 5.02209 5.52209 0.5 11.0799 0.5C16.6377 0.5 21.1598 5.02209 21.1598 10.5799C21.1599 12.8164 20.4111 14.9886 19.0329 16.75Z" fill="#4991F6"/>
<circle cx="11.1452" cy="10.5362" r="7.09091" fill="white"/>
<path d="M12.3399 7.2678C12.3399 6.57193 11.7758 6.00781 11.0799 6.00781C10.3841 6.00781 9.81996 6.57193 9.81996 7.2678V11.0478C9.81996 11.3819 9.95271 11.7024 10.189 11.9387L12.709 14.4587C13.201 14.9507 13.9988 14.9507 14.4909 14.4587C14.9829 13.9666 14.9829 13.1688 14.4909 12.6768L12.3399 10.5259V7.2678Z" fill="#4991F6"/>
<path d="M18 17.5L22 21.5" stroke="#4991F6" stroke-width="3" stroke-linecap="round"/>
</g>
</g>
<defs>
<clipPath id="clip0_13073_11585">
<rect width="24" height="24" fill="white"/>
</clipPath>
</defs>
</svg>
