<svg width="16" height="16" viewBox="0 0 16 16" fill="none" xmlns="http://www.w3.org/2000/svg">
<path d="M8 1.33203C11.6818 1.33203 14.6669 4.3172 14.667 7.99902C14.667 11.6809 11.6819 14.666 8 14.666C4.3181 14.666 1.33301 11.6809 1.33301 7.99902C1.3331 4.3172 4.31815 1.33203 8 1.33203ZM8 2.39941C4.90726 2.39941 2.40048 4.9063 2.40039 7.99902C2.40039 11.0918 4.90721 13.5996 8 13.5996C11.0928 13.5996 13.5996 11.0918 13.5996 7.99902C13.5995 4.90631 11.0927 2.39941 8 2.39941ZM7.99902 4.46582C8.29348 4.46582 8.53304 4.70461 8.5332 4.99902V7.46582H11C11.2944 7.466 11.5332 7.70556 11.5332 8C11.5329 8.29422 11.2942 8.53303 11 8.5332H7.99902C7.70484 8.53296 7.46608 8.29418 7.46582 8V4.99902C7.46598 4.70476 7.70478 4.46607 7.99902 4.46582Z" fill="#33363D"/>
</svg>
