<svg width="120" height="120" viewBox="0 0 120 120" fill="none" xmlns="http://www.w3.org/2000/svg">
<path d="M22.6108 17.9063C23.3723 17.9097 24.0602 18.3617 24.3657 19.0592L39.9608 54.6776C40.3873 55.6516 39.9435 56.7871 38.9696 57.2136C37.9956 57.6401 36.8601 57.1963 36.4336 56.2224L22.5803 24.5825L8.37843 56.2382C7.94313 57.2083 6.8039 57.6417 5.83378 57.2065C4.8637 56.7712 4.43023 55.6319 4.86548 54.6618L20.8456 19.0434L20.9084 18.9163C21.2441 18.2948 21.8968 17.9031 22.6108 17.9063Z" fill="#58616A"/>
<path d="M84.9911 17.9063C85.7526 17.9097 86.4406 18.3617 86.7461 19.0592L102.341 54.6776C102.768 55.6516 102.324 56.7871 101.35 57.2136C100.376 57.6401 99.2405 57.1963 98.8139 56.2224L84.9607 24.5825L70.7588 56.2382C70.3235 57.2083 69.1843 57.6417 68.2141 57.2065C67.2441 56.7712 66.8106 55.6319 67.2458 54.6618L83.226 19.0434L83.2888 18.9163C83.6245 18.2948 84.2772 17.9031 84.9911 17.9063Z" fill="#58616A"/>
<path d="M39.3523 51.4062C41.4789 51.4062 43.2402 53.1459 42.8509 55.2366C41.0531 64.8909 32.5848 72.1997 22.4095 72.1997C12.2341 72.1997 3.76583 64.8909 1.96808 55.2366C1.57876 53.1459 3.34001 51.4062 5.46666 51.4062H39.3523Z" fill="#D8E5FD"/>
<path d="M101.733 51.4062C103.859 51.4062 105.621 53.1459 105.231 55.2366C103.433 64.8909 94.9652 72.1997 84.7898 72.1997C74.6145 72.1997 66.1462 64.8909 64.3485 55.2366C63.9591 53.1459 65.7204 51.4062 67.847 51.4062H101.733Z" fill="#D8E5FD"/>
<path d="M54.1774 7.89301C55.9851 7.89301 57.4505 9.3584 57.4505 11.1661V85.0983C57.4505 86.906 55.9851 88.3714 54.1774 88.3714C52.3698 88.3714 50.9044 86.906 50.9044 85.0983V11.1661C50.9044 9.3584 52.3698 7.89301 54.1774 7.89301Z" fill="#6D7882"/>
<path d="M13.9382 20.4076C13.9382 18.5999 15.4036 17.1345 17.2113 17.1345H91.1435C92.9512 17.1345 94.4166 18.5999 94.4166 20.4076C94.4166 22.2152 92.9512 23.6806 91.1435 23.6806H17.2113C15.4036 23.6806 13.9382 22.2152 13.9382 20.4076Z" fill="#6D7882"/>
<path d="M59.7608 10.3959C59.7608 13.4796 57.2611 15.9794 54.1774 15.9794C51.0938 15.9794 48.594 13.4796 48.594 10.3959C48.594 7.31228 51.0938 4.8125 54.1774 4.8125C57.2611 4.8125 59.7608 7.31228 59.7608 10.3959Z" fill="#6D7882"/>
<path d="M37.0419 87.218C37.0419 83.6027 39.9727 80.6719 43.588 80.6719H64.7665C68.3818 80.6719 71.3126 83.6027 71.3126 87.218H37.0419Z" fill="#58616A"/>
<path d="M30.4958 90.491C30.4958 88.6834 31.9612 87.218 33.7689 87.218H74.5857C76.3933 87.218 77.8587 88.6834 77.8587 90.491C77.8587 92.2987 76.3933 93.764 74.5857 93.764H33.7689C31.9612 93.764 30.4958 92.2987 30.4958 90.491Z" fill="#58616A"/>
<path d="M75.0183 63.3206C75.0183 60.0564 77.6645 57.4102 80.9288 57.4102H112.136C115.4 57.4102 118.046 60.0564 118.046 63.3206V109.304C118.046 112.568 115.4 115.214 112.136 115.214H80.9288C77.6645 115.214 75.0183 112.568 75.0183 109.304V63.3206Z" fill="url(#paint0_linear_19626_72906)"/>
<path d="M80.2195 65.4499C80.2195 64.4054 81.0663 63.5586 82.1108 63.5586H110.954C111.998 63.5586 112.845 64.4054 112.845 65.4499V71.8332C112.845 72.8778 111.998 73.7246 110.954 73.7246H82.1108C81.0663 73.7246 80.2195 72.8778 80.2195 71.8332V65.4499Z" fill="white"/>
<path d="M80.2195 80.8171C80.2195 79.7726 81.0663 78.9258 82.1108 78.9258H87.1938C88.2384 78.9258 89.0852 79.7726 89.0852 80.8171V84.4816C89.0852 85.5262 88.2384 86.373 87.1938 86.373H82.1108C81.0663 86.373 80.2195 85.5262 80.2195 84.4816V80.8171Z" fill="#063A74"/>
<path d="M80.2195 91.1013C80.2195 90.0568 81.0663 89.21 82.1108 89.21H87.1938C88.2384 89.21 89.0852 90.0568 89.0852 91.1013V94.7658C89.0852 95.8104 88.2384 96.6572 87.1938 96.6572H82.1108C81.0663 96.6572 80.2195 95.8104 80.2195 94.7658V91.1013Z" fill="#063A74"/>
<path d="M80.2195 101.858C80.2195 100.814 81.0663 99.967 82.1108 99.967H87.1938C88.2384 99.967 89.0852 100.814 89.0852 101.858V105.523C89.0852 106.567 88.2384 107.414 87.1938 107.414H82.1108C81.0663 107.414 80.2195 106.567 80.2195 105.523V101.858Z" fill="#063A74"/>
<path d="M92.1586 80.8171C92.1586 79.7726 93.0054 78.9258 94.05 78.9258H99.133C100.178 78.9258 101.024 79.7726 101.024 80.8171V84.4816C101.024 85.5262 100.178 86.373 99.133 86.373H94.05C93.0054 86.373 92.1586 85.5262 92.1586 84.4816V80.8171Z" fill="#063A74"/>
<path d="M92.1586 91.1013C92.1586 90.0568 93.0054 89.21 94.05 89.21H99.133C100.178 89.21 101.024 90.0568 101.024 91.1013V94.7658C101.024 95.8104 100.178 96.6572 99.133 96.6572H94.05C93.0054 96.6572 92.1586 95.8104 92.1586 94.7658V91.1013Z" fill="#063A74"/>
<path d="M92.1586 101.858C92.1586 100.814 93.0054 99.967 94.05 99.967H99.133C100.178 99.967 101.024 100.814 101.024 101.858V105.523C101.024 106.567 100.178 107.414 99.133 107.414H94.05C93.0054 107.414 92.1586 106.567 92.1586 105.523V101.858Z" fill="#063A74"/>
<path d="M103.98 80.8171C103.98 79.7726 104.826 78.9258 105.871 78.9258H110.954C111.998 78.9258 112.845 79.7726 112.845 80.8171V84.4816C112.845 85.5262 111.998 86.373 110.954 86.373H105.871C104.826 86.373 103.98 85.5262 103.98 84.4816V80.8171Z" fill="#063A74"/>
<path d="M103.98 91.1013C103.98 90.0568 104.826 89.21 105.871 89.21H110.954C111.998 89.21 112.845 90.0568 112.845 91.1013V94.7658C112.845 95.8104 111.998 96.6572 110.954 96.6572H105.871C104.826 96.6572 103.98 95.8104 103.98 94.7658V91.1013Z" fill="#063A74"/>
<path d="M103.98 101.856C103.98 100.812 104.827 99.9648 105.871 99.9648H110.954C111.999 99.9648 112.845 100.812 112.845 101.856V105.521C112.845 106.565 111.999 107.412 110.954 107.412H105.871C104.827 107.412 103.98 106.565 103.98 105.521V101.856Z" fill="#D63D4A"/>
<path d="M95.6882 65.5938C96.5623 65.6261 96.6315 66.5015 96.8651 67.2177C97.1242 68.0264 97.3899 68.8331 97.6627 69.6379L98.4352 67.183C98.5395 66.852 98.6872 66.2843 98.8349 65.9879C99.1886 65.2771 100.25 65.6214 99.9986 66.4902C99.829 67.0766 99.6325 67.6552 99.4523 68.2346C99.8103 68.2338 100.541 68.1625 100.809 68.4101C101.223 68.7922 101.043 69.5338 100.428 69.5849C99.958 69.6242 99.4969 69.6005 99.0237 69.5915C98.8181 70.2653 98.6165 70.9609 98.3926 71.628C98.3133 71.8647 98.1886 72.0737 97.9456 72.1692C97.7748 72.2359 97.5845 72.2312 97.4173 72.1563C96.998 71.9664 96.769 70.9297 96.6236 70.477C96.3712 69.6796 96.1067 68.8858 95.83 68.0966L95.7792 68.0693C95.6139 68.3422 95.6057 68.7165 95.4541 68.9708C95.0856 69.5743 94.7351 72.6484 93.6629 72.2144C93.1702 72.0148 92.7173 70.1631 92.5586 69.5973C92.0776 69.5895 91.0929 69.7163 90.7244 69.416C90.372 69.1294 90.4646 68.3843 90.9686 68.2767C91.334 68.1983 91.7517 68.2342 92.1327 68.2405C91.9377 67.663 91.4837 66.5755 91.5935 65.9704C91.6697 65.5505 92.4801 65.4768 92.6915 65.9033C92.9162 66.3564 93.0424 66.8504 93.1944 67.3441C93.4234 68.1122 93.6645 68.8768 93.9173 69.6375C94.2162 68.6534 94.5706 67.6727 94.8801 66.6906C95.0512 66.1486 95.1114 65.7809 95.6882 65.5938Z" fill="#063A74"/>
<path d="M6.00488 94.8144C6.00488 86.035 13.1219 78.918 21.9013 78.918H28.33C37.1093 78.918 44.2264 86.035 44.2264 94.8144C44.2264 103.594 37.1093 110.711 28.33 110.711H21.9013C13.1219 110.711 6.00488 103.594 6.00488 94.8144Z" fill="url(#paint1_linear_19626_72906)"/>
<path d="M39.2762 112.185C39.4069 112.946 38.6099 113.529 37.924 113.173L30.3326 109.235C29.7165 108.915 29.6511 108.059 30.2115 107.65L36.3565 103.159C36.9169 102.749 37.7124 103.072 37.8298 103.756L39.2762 112.185Z" fill="url(#paint2_linear_19626_72906)"/>
<circle cx="16.8167" cy="95.9241" r="2.16238" fill="#063A74"/>
<circle cx="25.1157" cy="95.9241" r="2.16238" fill="#063A74"/>
<circle cx="33.4146" cy="95.9241" r="2.16238" fill="#063A74"/>
<defs>
<linearGradient id="paint0_linear_19626_72906" x1="96.5324" y1="115.214" x2="96.5324" y2="57.4102" gradientUnits="userSpaceOnUse">
<stop stop-color="#036CFF"/>
<stop offset="1" stop-color="#2368E9"/>
</linearGradient>
<linearGradient id="paint1_linear_19626_72906" x1="20.8718" y1="90.0652" x2="15.9664" y2="110.204" gradientUnits="userSpaceOnUse">
<stop offset="0.510766" stop-color="#E5ECF9"/>
<stop offset="1" stop-color="#D6DDEA"/>
</linearGradient>
<linearGradient id="paint2_linear_19626_72906" x1="20.8718" y1="90.0652" x2="15.9664" y2="110.204" gradientUnits="userSpaceOnUse">
<stop offset="0.510766" stop-color="#E5ECF9"/>
<stop offset="1" stop-color="#D6DDEA"/>
</linearGradient>
</defs>
</svg>
