<svg width="229" height="151" viewBox="0 0 229 151" fill="none" xmlns="http://www.w3.org/2000/svg">
<g clip-path="url(#clip0_17401_593168)">
<rect x="-52.5" y="76" width="291" height="89" fill="#063A74"/>
<path d="M347.72 49.9199L188.81 208.83L188.103 208.123L347.013 49.2129L347.72 49.9199ZM46.2354 46.9512L-112.675 205.861L-113.382 205.154L45.5283 46.2441L46.2354 46.9512ZM105.642 46.9512L-53.2686 205.861L-53.9756 205.154L104.935 46.2441L105.642 46.9512ZM165.047 46.9512L6.13672 205.861L5.42969 205.154L164.34 46.2441L165.047 46.9512ZM224.453 46.9512L65.543 205.861L64.8359 205.154L223.746 46.2441L224.453 46.9512ZM283.858 46.9512L124.948 205.861L124.241 205.154L283.151 46.2441L283.858 46.9512ZM343.265 46.9512L184.354 205.861L183.647 205.154L342.558 46.2441L343.265 46.9512ZM41.7803 43.9785L-117.13 202.889L-117.837 202.182L41.0732 43.2715L41.7803 43.9785ZM101.186 43.9785L-57.7246 202.889L-58.4316 202.182L100.479 43.2715L101.186 43.9785ZM160.592 43.9785L1.68164 202.889L0.974609 202.182L159.885 43.2715L160.592 43.9785ZM219.997 43.9785L61.0869 202.889L60.3799 202.182L219.29 43.2715L219.997 43.9785ZM279.403 43.9785L120.493 202.889L119.786 202.182L278.696 43.2715L279.403 43.9785ZM338.809 43.9785L179.898 202.889L179.191 202.182L338.102 43.2715L338.809 43.9785ZM37.3242 41.0098L-121.586 199.92L-122.293 199.213L36.6172 40.3027L37.3242 41.0098ZM96.7305 41.0098L-62.1797 199.92L-62.8867 199.213L96.0234 40.3027L96.7305 41.0098ZM156.137 41.0098L-2.77344 199.92L-3.48047 199.213L155.43 40.3027L156.137 41.0098ZM215.542 41.0098L56.6318 199.92L55.9248 199.213L214.835 40.3027L215.542 41.0098ZM274.948 41.0098L116.038 199.92L115.331 199.213L274.241 40.3027L274.948 41.0098ZM334.354 41.0098L175.443 199.92L174.736 199.213L333.646 40.3027L334.354 41.0098ZM32.8691 38.0371L-126.041 196.947L-126.748 196.24L32.1621 37.3301L32.8691 38.0371ZM92.2754 38.0371L-66.6348 196.947L-67.3418 196.24L91.5684 37.3301L92.2754 38.0371ZM151.681 38.0371L-7.22949 196.947L-7.9375 196.24L150.974 37.3301L151.681 38.0371ZM211.087 38.0371L52.1768 196.947L51.4697 196.24L210.38 37.3301L211.087 38.0371ZM270.492 38.0371L111.582 196.947L110.875 196.24L269.785 37.3301L270.492 38.0371ZM329.898 38.0371L170.988 196.947L170.281 196.24L329.191 37.3301L329.898 38.0371ZM105.642 17.248L-53.2686 176.158L-53.9756 175.451L104.935 16.541L105.642 17.248ZM165.047 17.248L6.13672 176.158L5.42969 175.451L164.34 16.541L165.047 17.248ZM224.453 17.248L65.543 176.158L64.8359 175.451L223.746 16.541L224.453 17.248ZM283.858 17.248L124.948 176.158L124.241 175.451L283.151 16.541L283.858 17.248ZM343.265 17.248L184.354 176.158L183.647 175.451L342.558 16.541L343.265 17.248ZM46.2354 17.2441L-112.675 176.154L-113.382 175.447L45.5283 16.5371L46.2354 17.2441ZM41.7803 14.2754L-117.13 173.186L-117.837 172.479L41.0732 13.5684L41.7803 14.2754ZM101.186 14.2754L-57.7246 173.186L-58.4316 172.479L100.479 13.5684L101.186 14.2754ZM160.592 14.2754L1.68164 173.186L0.974609 172.479L159.885 13.5684L160.592 14.2754ZM219.997 14.2754L61.0869 173.186L60.3799 172.479L219.29 13.5684L219.997 14.2754ZM279.403 14.2754L120.493 173.186L119.786 172.479L278.696 13.5684L279.403 14.2754ZM338.809 14.2754L179.898 173.186L179.191 172.479L338.102 13.5684L338.809 14.2754ZM96.7305 11.3066L-62.1797 170.217L-62.8867 169.51L96.0234 10.5996L96.7305 11.3066ZM156.137 11.3066L-2.77344 170.217L-3.48047 169.51L155.43 10.5996L156.137 11.3066ZM215.542 11.3066L56.6318 170.217L55.9248 169.51L214.835 10.5996L215.542 11.3066ZM274.948 11.3066L116.038 170.217L115.331 169.51L274.241 10.5996L274.948 11.3066ZM334.354 11.3066L175.443 170.217L174.736 169.51L333.646 10.5996L334.354 11.3066ZM37.3242 11.3027L-121.586 170.213L-122.293 169.506L36.6172 10.5957L37.3242 11.3027ZM32.8691 8.33398L-126.041 167.244L-126.748 166.537L32.1621 7.62695L32.8691 8.33398ZM92.2754 8.33398L-66.6348 167.244L-67.3418 166.537L91.5684 7.62695L92.2754 8.33398ZM151.681 8.33398L-7.22949 167.244L-7.9375 166.537L150.974 7.62695L151.681 8.33398ZM211.087 8.33398L52.1768 167.244L51.4697 166.537L210.38 7.62695L211.087 8.33398ZM270.492 8.33398L111.582 167.244L110.875 166.537L269.785 7.62695L270.492 8.33398ZM329.898 8.33398L170.988 167.244L170.281 166.537L329.191 7.62695L329.898 8.33398ZM29.8994 3.87695L-129.011 162.787L-129.719 162.08L29.1924 3.16992L29.8994 3.87695Z" fill="#24578F"/>
</g>
<rect x="0.5" y="86" width="196" height="2" fill="#052B57"/>
<path d="M0.5 26L196.5 86H0.5V26Z" fill="#54DEA7"/>
<path d="M192.5 82L196.5 86L0.5 26L5 24L192.5 82Z" fill="#9AEBCB"/>
<path d="M0.5 4V146H196.5" stroke="#6D7882"/>
<path d="M17.6475 5.61816V6.6875C17.6475 7.72754 17.6475 8.88477 17.3398 10.4082H19.0977V11.917H6.89551V10.4082H15.4502C15.7432 9.0752 15.7798 8.04248 15.7871 7.1123H8.38965V5.61816H17.6475ZM17.6035 13.3232V18.2012H8.3457V13.3232H17.6035ZM10.1768 14.7881V16.707H15.7432V14.7881H10.1768ZM22.6795 5.82324C24.452 5.82324 25.7557 7.1709 25.7703 9.0752C25.7557 11.0088 24.452 12.3125 22.6795 12.3125C20.907 12.3125 19.618 11.0088 19.618 9.0752C19.618 7.1709 20.907 5.82324 22.6795 5.82324ZM22.6795 7.40527C21.8592 7.40527 21.2879 8.02051 21.2879 9.0752C21.2879 10.1299 21.8592 10.7598 22.6795 10.7598C23.4852 10.7598 24.0564 10.1299 24.0711 9.0752C24.0564 8.02051 23.4852 7.40527 22.6795 7.40527ZM31.0145 5.03223V12.9863H29.242V9.74902H28.1434V12.9131H26.4148V5.2666H28.1434V8.25488H29.242V5.03223H31.0145ZM31.0145 13.5723V18.3477H29.1541V15.0664H21.8006V13.5723H31.0145Z" fill="#6D7882"/>
<path d="M214.102 133.018V146.348H212.212V133.018H214.102ZM210.103 134.409C210.103 138.452 208.682 141.807 203.921 144.062L202.939 142.568C206.382 140.942 207.898 138.833 208.198 135.874H203.657V134.409H210.103ZM226.136 133.018V136.753H227.937V138.291H226.136V142.568H224.246V133.018H226.136ZM222.503 134.014C222.503 137.617 220.247 140.137 216.248 141.265L215.471 139.785C218.452 138.95 220.144 137.405 220.452 135.537H216.057V134.014H222.503ZM226.59 144.619V146.113H217.464V141.587H219.353V144.619H226.59Z" fill="#6D7882"/>
<defs>
<clipPath id="clip0_17401_593168">
<rect width="196" height="60" fill="white" transform="translate(0.5 86)"/>
</clipPath>
</defs>
</svg>
